<?xml version="1.0" encoding="utf-8"?>
<!-- Generator: Adobe Illustrator 27.5.0, SVG Export Plug-In . SVG Version: 6.00 Build 0)  -->
<svg version="1.1" xmlns="http://www.w3.org/2000/svg" xmlns:xlink="http://www.w3.org/1999/xlink" x="0px" y="0px"
	 viewBox="0 0 500 500" style="enable-background:new 0 0 500 500;" xml:space="preserve">
<g id="BACKGROUND">
	<rect style="fill:#FEFEFE;" width="500" height="500"/>
</g>
<g id="OBJECTS">
	<g>
		<g>
			<path style="fill:#DADFFE;" d="M390.91,219.327c-2.804-15.618-12.319-31.741-27.79-35.269
				c-20.265-4.622-41.631,13.897-60.975,6.292c-11.712-4.605-18.043-17.402-20.8-29.681c-2.758-12.279-2.078-25.684-7.921-36.83
				c-27.407-52.288-98.617-20.338-107.63-12.161c-11.416,10.357-22.75,21.44-29.181,35.449
				c-14.012,30.523-1.779,67.279-11.62,99.391c-5.372,17.532-17.054,32.66-22.04,50.306c-3.968,14.045-7.635,32.679-6.316,47.214
				c2.639,29.066,6.209,51.584,21.548,81.899c0,0,225.507-4.938,229.465-12.316c3.742-6.975,9.36-62.355,15.464-81.114
				c6.089-18.713,14.666-36.533,20.966-55.176C390.381,258.687,394.387,238.696,390.91,219.327z"/>
			<g>
				<g>
					<g>
						<path style="fill:#110945;" d="M189.851,132.918c-18.538,14.49-19.539,26.063-18.102,37.713
							c0.701,5.682,2.764,11.418,1.455,16.992c-1.008,4.291-3.885,7.85-6.328,11.52c-3.655,5.492-6.518,11.707-6.942,18.291
							c-0.423,6.583,1.902,13.569,7.072,17.667c5.38,4.263,12.799,4.811,19.642,4.273c6.843-0.539,13.718-1.978,20.512-1.001
							c5.321,0.765,10.536,3.004,15.875,2.382c3.541-0.412,6.804-2.057,9.981-3.674c3.706-1.887,7.544-3.883,10.046-7.205
							c4.535-6.023,3.46-14.595,6.574-21.461c1.685-3.716,4.543-6.799,6.271-10.496c2.678-5.73,2.401-12.407,1.228-18.623
							c-3.295-17.452-5.01-34.463-19.276-44.973C231.855,129.898,206.419,119.968,189.851,132.918z"/>
						<g>
							<path style="fill:#161675;" d="M170.776,213.55c0.45-6,5.753-9.099,8.764-13.743c2.282-3.519,3.141-7.637,3.618-11.746
								c0.09-0.78-1.274-0.972-1.381-0.187c-0.39,2.855-0.847,5.589-1.944,8.263c-1.424,3.471-3.898,5.854-6.247,8.679
								c-2.186,2.629-3.634,5.281-3.748,8.735C169.818,214.158,170.731,214.145,170.776,213.55L170.776,213.55z"/>
						</g>
						<g>
							<path style="fill:#161675;" d="M179.531,213.891c6.119-4.652,11.985-13.918,9.805-21.96c-0.11-0.406-0.809-0.464-0.881,0
								c-0.596,3.847-0.538,7.458-2.085,11.149c-1.646,3.927-4.24,7.23-7.534,9.91C178.335,213.396,179.011,214.286,179.531,213.891
								L179.531,213.891z"/>
						</g>
						<g>
							<path style="fill:#161675;" d="M243.419,213.724c1.385-8.256,8.479-13.741,9.567-22.244c0.52-4.062,0.561-8.209,0.345-12.294
								c-0.17-3.209-0.111-7.491-1.737-10.338c-0.293-0.514-1.042-0.261-1.07,0.29c-0.179,3.526,0.929,7.19,1.088,10.756
								c0.186,4.156,0.152,8.416-0.502,12.534c-1.24,7.8-7.984,13.077-9.205,20.879
								C241.751,214.292,243.252,214.724,243.419,213.724L243.419,213.724z"/>
						</g>
						<g>
							<path style="fill:#161675;" d="M238.229,213.165c0.383-1.51,0.864-3.002,1.484-4.432c0.519-1.195,1.245-2.292,1.68-3.519
								c0.173-0.486-0.523-0.872-0.862-0.502c-1.907,2.085-2.791,5.473-3.297,8.178
								C237.114,213.535,238.063,213.817,238.229,213.165L238.229,213.165z"/>
						</g>
					</g>
					<g>
						<path style="fill:#E1E5FF;" d="M161.992,228.2c-2.447,3.089-2.753,7.311-2.871,11.25
							c-1.484,49.71,10.853,99.086,9.092,148.787c29.055,3.738,58.471,4.664,87.704,2.761c4.003-26.293,4.184-52.999,4.357-79.595
							c0.096-14.837,0.193-29.674,0.289-44.511c0.085-13.089,0.032-26.778-6.015-38.386c-0.65-1.248-1.423-2.52-2.656-3.199
							c-0.984-0.542-2.143-0.639-3.262-0.721c-16.849-1.23-33.768-1.485-50.647-0.767c-7.038,0.299-13.722,0.87-20.665,0.102
							C171.918,223.322,165.746,223.461,161.992,228.2z"/>
						<g>
							<path style="fill:#CED4F2;" d="M199.903,275.457c3.846,7.495,8.572,14.409,14.361,20.54
								c4.245,4.495,10.457,11.675,17.349,10.847c0.644-0.077,0.933-1.089,0.168-1.243c-7.564-1.524-12.969-7.104-17.983-12.663
								c-4.98-5.522-9.222-11.612-12.783-18.132C200.617,274.075,199.525,274.721,199.903,275.457L199.903,275.457z"/>
						</g>
						<g>
							<path style="fill:#CED4F2;" d="M203.683,305.821c2.82,6.759,8.966,12.278,14.376,17.016c4.863,4.258,11.37,10.317,18.3,9.453
								c0.823-0.103,1.101-1.249,0.206-1.519c-7.263-2.192-12.595-5.57-18.295-10.606c-4.827-4.265-10.246-9.13-13.13-14.958
								C204.746,304.411,203.333,304.982,203.683,305.821L203.683,305.821z"/>
						</g>
						<g>
							<path style="fill:#CED4F2;" d="M214.601,337.675c2.856,1.314,5.87,2.746,9.009,3.165c0.78,0.104,1.058-1.129,0.396-1.463
								c-2.689-1.356-5.646-2.181-8.388-3.442C214.448,335.396,213.423,337.133,214.601,337.675L214.601,337.675z"/>
						</g>
					</g>
					<g>
						<path style="fill:#E88989;" d="M192.193,211.193c-4.402,6.128-11.773,10.013-19.316,10.179
							c4.613,9.616,9.39,19.436,17.02,26.887c7.63,7.452,19.041,11.128,30.952,8.781c7.474-1.473,15.338-5.979,19.011-12.653
							c3.673-6.674,4.667-12.167,2.118-23.043c-7.418,0.015-13.174-6.679-15.994-13.54c-2.82-6.862-3.863-14.466-7.625-20.859
							c-7.824-1.635-15.648-3.27-23.473-4.905C196.606,191.964,198.508,202.402,192.193,211.193z"/>
						<path style="fill:#FF9D9C;" d="M212.53,204.369c7.459,3.594,14.642,4.068,21.33-0.814
							c7.248-5.291,11.219-14.878,11.695-23.839c0.402-7.569,0.377-15.16-0.077-22.726c-0.362-6.048-1.206-12.558-5.363-16.965
							c-2.27-2.406-5.317-3.928-8.406-5.11c-10.423-3.99-23.299-4.18-31.681,3.189C179.184,156.429,189.796,193.414,212.53,204.369z
							"/>
						<path style="fill:#110945;" d="M228.741,141.878c4.873,7.482,11.047,14.114,18.16,19.511
							c8.459-4.487,4.236-18.647-1.063-24.687c-5.299-6.04-12.312-10.98-25.479-12.146c-3.973-0.352-47.483,0.5-36.371,35.028
							c1.103,3.427,6.048,20.764,11.784,5.215c3.587-9.721,14.581-6.562,20.165-9.891
							C217.683,153.867,230.405,144.432,228.741,141.878z"/>
						<path style="fill:#FF9D9C;" d="M194.675,169.658c-1.779-4.417-4.686-8.267-9.447-8.27c-7.201,3.243-3.562,14.074,2.041,18.667
							C198.86,189.555,194.675,169.658,194.675,169.658z"/>
						<g>
							<path style="fill:#C96767;" d="M227.223,166.386c-0.806,2.854-0.805,5.742,0.131,8.575c0.405,1.225,1.072,2.251,1.631,3.399
								c1.929,3.96-0.047,4.724-3.332,5.993c-0.678,0.262-0.81,1.305,0,1.514c2.842,0.734,6.628-1.309,7.098-4.424
								c0.279-1.846-0.942-2.751-1.883-4.184c-2.071-3.155-2.529-6.711-1.883-10.387
								C229.187,165.732,227.549,165.233,227.223,166.386L227.223,166.386z"/>
						</g>
						<g>
							<path style="fill:#DD553E;" d="M211.86,168.289c0.302,0,0.302-0.469,0-0.469C211.558,167.821,211.558,168.289,211.86,168.289
								L211.86,168.289z"/>
						</g>
						<g>
							<path style="fill:#110945;" d="M211.127,169.572c1.516-0.613,3.08-1.039,4.713-1.185c1.336-0.12,2.614,0.262,3.69-0.652
								c0.405-0.344,0.32-0.986,0-1.342c-1.037-1.152-2.916-0.708-4.303-0.493c-1.743,0.27-3.383,0.852-4.967,1.617
								C209.129,168.061,209.939,170.052,211.127,169.572L211.127,169.572z"/>
						</g>
						<g>
							<path style="fill:#110945;" d="M235.36,167.11c1.517,0.077,3.101,0.283,4.615,0.135c1.528-0.149,1.531-2.23,0-2.38
								c-1.515-0.148-3.098,0.058-4.615,0.135C234.004,165.069,234.001,167.041,235.36,167.11L235.36,167.11z"/>
						</g>
						<g>
							<path style="fill:#110945;" d="M207.234,163.194c4.346-2.347,8.605-2.878,13.273-4.105c0.641-0.168,0.438-1.017-0.146-1.082
								c-4.729-0.525-9.833,1.624-13.895,3.871C205.606,162.354,206.371,163.66,207.234,163.194L207.234,163.194z"/>
						</g>
						<g>
							<path style="fill:#110945;" d="M230.871,157.796c3.735-0.478,6.403,0.737,9.845,1.836c0.607,0.194,1.098-0.645,0.627-1.077
								c-2.74-2.513-7.18-2.714-10.653-2.094C229.945,156.593,230.108,157.893,230.871,157.796L230.871,157.796z"/>
						</g>
						<path style="fill:#FEFEFE;" d="M228.79,188.805l-13.263-1.957c0.155,12.54,4.161,13.976,8.092,14.015
							C227.36,200.901,228.79,195.187,228.79,188.805z"/>
						<g>
							<path style="fill:#110945;" d="M213.441,167.524c-0.302,1.802-0.3,4.155,1.388,5.289c1.134,0.762,2.618-0.035,2.989-1.216
								c0.288-0.918-0.087-1.535-0.322-2.369c-0.026-0.092-0.045-0.187-0.07-0.279c-0.117-0.428,0.05,0-0.017,0.045
								c0.049-0.033-0.036-0.844-0.035-0.938c0.008-0.998-0.768-1.836-1.736-1.966C214.738,165.969,213.606,166.54,213.441,167.524
								L213.441,167.524z"/>
						</g>
						<g>
							<path style="fill:#110945;" d="M235.53,167.012c-0.208,0.835-0.233,1.722-0.216,2.582c0.014,0.689,0.372,1.444,1.013,1.767
								c0.722,0.363,1.343,0.363,2.065,0c0.641-0.323,0.999-1.078,1.013-1.767c0.017-0.859-0.008-1.747-0.216-2.582
								C238.741,165.204,235.979,165.203,235.53,167.012L235.53,167.012z"/>
						</g>
						<g>
							<path style="fill:#F46C6C;" d="M208.36,182.586c1.016,0.041,1.97,0.137,2.947-0.212c0.968-0.346,1.815-1.215,1.766-2.319
								c-0.05-1.118-0.725-1.947-1.766-2.319c-0.974-0.348-1.934-0.254-2.947-0.212c-1.321,0.054-2.594,1.126-2.531,2.531
								C205.892,181.473,206.941,182.528,208.36,182.586L208.36,182.586z"/>
						</g>
						<g>
							<path style="fill:#F46C6C;" d="M239.86,180.992c0.683,0.067,1.281,0.092,1.962-0.08c1-0.252,1.842-1.31,1.795-2.358
								c-0.048-1.062-0.722-2.088-1.795-2.358c-0.682-0.172-1.28-0.146-1.962-0.08c-0.661,0.065-1.238,0.229-1.724,0.714
								c-0.423,0.423-0.741,1.116-0.714,1.724C237.486,179.982,238.496,180.859,239.86,180.992L239.86,180.992z"/>
						</g>
						<g>
							<path style="fill:#C96767;" d="M189.124,165.63c-0.845-0.555-1.959-1.051-2.94-0.503c-0.408,0.228-0.672,0.637-0.95,0.995
								c-0.035,0.044-0.269,0.44-0.063,0.202c0.219-0.253-0.299,0.182-0.357,0.264c-1.545,2.242-0.235,7.405,2.082,8.686
								c0.527,0.291,1.311-0.2,1.085-0.834c-0.36-1.012-1.047-1.841-1.403-2.865c-0.403-1.157-0.548-2.499-0.293-3.71
								c-0.248,0.054-0.293,0.034-0.134-0.06c0.066-0.044,0.124-0.096,0.174-0.157c0.071-0.139,0.218-0.334,0.32-0.464
								c0.636-0.809,0.953-1.125,2.1-0.655C189.283,166.75,189.565,165.92,189.124,165.63L189.124,165.63z"/>
						</g>
						<g>
							<path style="fill:#DD553E;" d="M190.86,177.453c2.443,0,2.447-3.797,0-3.797C188.417,173.657,188.413,177.453,190.86,177.453
								L190.86,177.453z"/>
						</g>
						<g>
							<path style="fill:#161675;" d="M195.389,155.335c4.557-5.909,9.814-4.274,16.085-5.971c3.905-1.057,7.488-4.516,10.619-6.899
								c0.407-0.31,0.18-0.937-0.352-0.835c-2.203,0.42-3.603,1.693-5.334,3.041c-4.052,3.156-7.872,3.068-12.686,3.872
								c-4.008,0.669-7.137,2.889-9.526,6.094C193.66,155.355,194.856,156.027,195.389,155.335L195.389,155.335z"/>
						</g>
						<g>
							<path style="fill:#161675;" d="M191.914,150.351c2.619-4.704,6.64-8.478,11.78-10.273c3.993-1.394,8.256-1.492,12.172-3.171
								c0.844-0.362,0.115-1.589-0.722-1.234c-5.101,2.163-10.759,2.193-15.567,5.141c-3.625,2.222-6.367,5.409-8.331,9.146
								C191.015,150.4,191.671,150.788,191.914,150.351L191.914,150.351z"/>
						</g>
						<g>
							<path style="fill:#161675;" d="M184.215,148.813c5.574-12.601,19.9-17.917,32.729-18.363
								c0.644-0.022,0.816-0.984,0.156-1.151c-12.143-3.081-29.98,7.493-34.106,18.999
								C182.742,149.002,183.908,149.507,184.215,148.813L184.215,148.813z"/>
						</g>
						<g>
							<path style="fill:#161675;" d="M234.705,139.737c1.043,3.356,3.506,8.258,6.868,9.811c0.5,0.231,1.088-0.253,0.786-0.786
								c-0.941-1.657-2.495-2.929-3.602-4.487c-1.126-1.584-1.991-3.306-2.831-5.053
								C235.597,138.538,234.482,139.019,234.705,139.737L234.705,139.737z"/>
						</g>
						<g>
							<path style="fill:#161675;" d="M233.088,132.336c5.938,3.524,9.951,8.575,11.283,15.373c0.13,0.663,1.053,0.442,1.105-0.15
								c0.622-7.041-6.206-13.173-11.761-16.296C233.018,130.871,232.4,131.928,233.088,132.336L233.088,132.336z"/>
						</g>
						<g>
							<path style="fill:#161675;" d="M179.585,176.779c-1.208-3.185-2.274-6.337-2.322-9.787c-0.05-3.609,1.328-6.458,2.025-9.859
								c0.111-0.544-0.593-1.094-1.018-0.593c-4.456,5.256-3.397,15.336,0.416,20.618
								C178.985,177.572,179.799,177.342,179.585,176.779L179.585,176.779z"/>
						</g>
					</g>
					<g>
						<path style="fill:#FF9D9C;" d="M352.318,223.679c2.011-3.487,2.458-6.905,2.542-11.29c0.049-2.54-1.918-10.434-2.958-9.639
							c-1.855-1.469,0.416,7.639-1.855,10.472c-0.983-3.315-3.526-20.132-5.52-20.159c-3-0.041,0,8.218-0.5,17.659
							c-2.339-1.611-5.902-21.373-8.728-18.667c-1.833,1.756,3.728,15.087,2.625,20.424c-0.293-2.241-7.693-17.092-9.897-16.591
							c-1.091,3.015,3.347,11.194,4,14.333c0.652,3.139,0.572,8.855-2.483,9.829c-1.432-2.605-2.638-3.282-5.447-4.255
							c-2.809-0.973-5.325,0.802-5.404,2.532c-0.046,1.023,2.492,2.244,3.507,2.379c7.317,0.968,9.333,12.901,10.222,13.76
							c1.979,1.911,1.171,5.567,3.138,7.491c0.966,0.944,2.377,1.232,3.706,1.479c5.82,1.079,6.775-3.593,7.259-8.272
							C347.104,229.588,350.067,227.582,352.318,223.679z"/>
						<path style="fill:#DD553E;" d="M321.61,287.055c9.816-14.303,7.792-34.403,7.645-51.75c5.313,0.016,13.296-0.152,18.609-0.136
							c5.319,21.307,11.136,64.136-7.255,83.386c-6.959,7.285-17.409,7.656-27.25,5.5c-5.307-1.163-46.249-32.419-54.259-40.75
							c-9.491-9.87-7.668-37.512-7.989-47.88c-0.406-13.135,9.367-18.246,17.876-8.054
							C277.896,238.044,316.508,286.64,321.61,287.055z"/>
						<g>
							<path style="fill:#F25D49;" d="M323.028,290.881c1.063,1.017,2.103,2.069,2.985,3.25c0.781,1.047,1.346,2.253,2.619,2.74
								c0.402,0.154,0.959-0.173,1.038-0.589c0.292-1.542-0.765-2.795-1.679-3.938c-1.026-1.283-2.175-2.391-3.486-3.377
								C323.389,288.128,322.045,289.94,323.028,290.881L323.028,290.881z"/>
						</g>
						<g>
							<path style="fill:#F25D49;" d="M320.157,295.776c0.574-1.956,1.733-4.39,1.392-6.448c-0.092-0.557-0.957-0.787-1.312-0.346
								c-1.307,1.621-1.493,4.296-1.956,6.277C317.997,296.477,319.803,296.982,320.157,295.776L320.157,295.776z"/>
						</g>
						<g>
							<path style="fill:#F25D49;" d="M333.36,243.598c3.867,0.414,8.123,0.561,12,0.234c1.641-0.138,1.644-2.416,0-2.555
								c-3.877-0.327-8.131-0.18-12,0.234C332.021,241.655,332.018,243.454,333.36,243.598L333.36,243.598z"/>
						</g>
					</g>
					<g>
						<path style="fill:#DD553E;" d="M190.388,267.785c5.356,41.385,5.506,83.247,5.648,124.977
							c-17.785,1.411-35.703,1.13-53.435-0.838c1.969-13.337,3.941-26.723,4.1-40.203c0.091-7.742-0.417-15.476-0.925-23.202
							c-1.194-18.165-2.389-36.331-3.583-54.496c-0.577-8.78-1.151-17.651,0.274-26.333c1.425-8.683,5.049-17.288,11.644-23.112
							c4.261-3.762,20.248-4.56,26.794-4.794C185.685,219.611,188.545,253.542,190.388,267.785z"/>
						<path style="fill:#DD553E;" d="M245.193,281.888c0.322,40.939,1.657,72.479,0.099,113.389
							c11.774,0.387,23.616-1.402,34.75-5.251c4.301-39.822-0.224-80.013-4.929-119.789c-1.753-14.816-2.668-27.452-8.224-41.299
							c-0.717-1.786-3.7-6.47-5.595-6.803c-6.412-1.128-24.862-2.086-24.862-2.086c2.5,3.547,5.087,19.413,5.545,22.171
							C244.024,254.538,245.095,269.437,245.193,281.888z"/>
						<g>
							<path style="fill:#F25D49;" d="M264.006,235.305c2.433,7.666,4.62,15.429,6.484,23.254c0.862,3.617,1.641,7.251,2.359,10.899
								c0.718,3.648,0.942,7.628,2.504,11.007c0.315,0.681,1.202,0.246,1.267-0.343c0.767-6.954-2.367-15.41-4.085-22.127
								c-2-7.822-4.433-15.475-7.219-23.052C265.02,234.135,263.738,234.459,264.006,235.305L264.006,235.305z"/>
						</g>
						<g>
							<path style="fill:#F25D49;" d="M170.608,293.428c2.924,9.803,7.247,21.111,13.326,29.383c0.431,0.586,1.584,0.27,1.285-0.542
								c-1.654-4.493-4.031-8.694-6.026-13.042c-2.458-5.357-4.512-10.866-6.8-16.291
								C171.947,291.877,170.256,292.248,170.608,293.428L170.608,293.428z"/>
						</g>
						<g>
							<path style="fill:#F25D49;" d="M167.763,313.404c3.374,4.817,5.803,10.102,8.949,15.03c0.436,0.684,1.666,0.26,1.371-0.578
								c-1.93-5.478-5.666-10.537-9.126-15.15C168.434,312.009,167.245,312.665,167.763,313.404L167.763,313.404z"/>
						</g>
						<g>
							<path style="fill:#F25D49;" d="M254.351,323.84c1.495,5.37,3.842,10.498,7.431,14.796c0.614,0.735,1.779-0.21,1.307-1.008
								c-2.734-4.616-5.265-9.178-7.11-14.236C255.612,322.387,254.055,322.777,254.351,323.84L254.351,323.84z"/>
						</g>
						<g>
							<path style="fill:#F25D49;" d="M255.382,298.318c1.977,7.92,4.926,16.212,10.093,22.643c0.471,0.586,1.303-0.16,0.994-0.767
								c-3.748-7.355-7.586-14.2-9.889-22.207C256.358,297.219,255.188,297.541,255.382,298.318L255.382,298.318z"/>
						</g>
					</g>
					<g>
						<path style="fill:#FF9D9C;" d="M224.36,349.722c2.377,2.653,2.845,3.677,4,6.5c3,7.333,6.083,15.605,7.104,18.795
							c-1.753,1.644-3.659-1.4-5.521-4.545c-1.224-2.068-2.438-5.926-4.75-6.583c-0.227,1.959,0.417,4.75-3.417,6.917
							c-2.001,1.131-1.576-0.599-3.746,0.159c-0.609,0.213-4.268,0.409-7.004-1.159c-1.682-0.964-3.412-3.492-5.333-3.75
							c-4.509-0.607-17.449,1.23-17.667,0.667c-0.543-1.404-4.435-17.18,3.339-17.047C203.86,349.888,221.36,346.374,224.36,349.722
							z"/>
						<path style="fill:#F25D49;" d="M125.523,282.588c-5.261,17.025-7.999,26.499-11.228,44.024
							c-2.297,12.466-4.687,21.676,3.952,30.952c9.612,10.322,85.047,12.785,86.039,10.87c5.277-10.184,2.907-17.607-0.427-21.546
							c-19.945-5.1-35.282-12.286-52.084-17.833c1.979-15.725,4.776-19.956,9.251-35.16c4.241-14.407,6.889-23.663,9.167-38.507
							c0.781-5.091,1.067-12.214,0.32-17.31c-1.01-6.895-5.688-14.282-13.397-14.399c-6.315-0.096-10.717,7.364-13.423,12.209
							C134.887,251.653,130.856,265.332,125.523,282.588z"/>
						<g>
							<path style="fill:#DD553E;" d="M125.77,336.966c5.938-5.849,12.429-7.788,20.273-9.656c0.719-0.171,0.545-1.253-0.171-1.266
								c-7.787-0.147-15.691,4.675-20.963,10.06C124.359,336.665,125.21,337.517,125.77,336.966L125.77,336.966z"/>
						</g>
						<g>
							<path style="fill:#DD553E;" d="M140.425,344.233c0.726-2.028,1.182-4.068,2.205-5.993c1.025-1.927,2.41-3.463,3.891-5.038
								c0.997-1.06-0.488-2.483-1.574-1.574c-3.353,2.803-6.246,7.942-5.972,12.409
								C139.026,344.881,140.142,345.023,140.425,344.233L140.425,344.233z"/>
						</g>
						<g>
							<path style="fill:#DD553E;" d="M198.137,364.267c1.22-4.156,2.156-8.867,1.667-13.213c-0.131-1.165-1.786-1.215-1.852,0
								c-0.236,4.364-0.398,8.474-1.578,12.727C196.059,364.917,197.806,365.395,198.137,364.267L198.137,364.267z"/>
						</g>
					</g>
				</g>
				<g>
					<path style="fill:#2D26AF;" d="M395.334,378.901H264.36l26.972-76.073c0.987-2.783,3.619-4.642,6.571-4.642h116.925
						c1.168,0,2.331,0.163,3.454,0.485l0,0c3.065,0.878,4.743,4.17,3.652,7.165L395.334,378.901z"/>
					<path style="fill:#5E6BE5;" d="M396.081,378.901H268.529l26.225-73.965c0.987-2.783,3.619-4.642,6.571-4.642h117.438
						c2.532,0,4.301,2.505,3.455,4.891L396.081,378.901z"/>
					<rect x="264.36" y="378.901" style="fill:#110945;" width="130.974" height="8.154"/>
					<path style="fill:#2D26AF;" d="M203.86,387.055h60.5v-8.154h-58.476c-1.118,0-2.024,0.906-2.024,2.024V387.055z"/>
					<path style="fill:#FEFEFE;" d="M356.722,335.134c-1.573-0.543-3.003-0.068-4.162,0.655c-1.88,1.173-4.341,0.781-5.915-0.778
						c-1.298-1.286-2.999-1.848-4.66-0.38c-3.952,3.493,0.016,14.011,5.267,15.052C355.311,351.283,365.018,338,356.722,335.134z"/>
				</g>
				<g>
					<rect x="69.385" y="387.055" style="fill:#FFC155;" width="367.604" height="8.566"/>
					<rect x="83.682" y="395.621" style="fill:#E0993B;" width="339.012" height="70.767"/>
				</g>
			</g>
		</g>
		<g>
			
				<rect x="398.706" y="157.031" transform="matrix(0.7071 -0.7071 0.7071 0.7071 3.3185 353.5548)" style="fill:#2D26AF;" width="59.465" height="31.481"/>
			<path style="fill:#5E6BE5;" d="M431.378,151.281l-24.431,24.43c-3.84,3.84-3.84,10.067,0,13.907l4.643,4.643
				c3.84,3.84,10.067,3.84,13.907,0l24.431-24.431c3.84-3.84,3.84-10.067,0-13.907l-4.643-4.643
				C441.445,147.441,435.219,147.441,431.378,151.281z"/>
			<path style="fill:#D7DBFF;" d="M438.297,162.913c4.098,4.098,3.006,11.834-2.439,17.279c-5.445,5.445-13.181,6.537-17.279,2.439
				c-4.098-4.098-3.006-11.834,2.439-17.279C426.463,159.906,434.199,158.815,438.297,162.913z"/>
			<g>
				<path style="fill:#100844;" d="M427.652,165.579c-4.185-0.261-9.281,8.285-3.433,8.993c2.357,0.286,4.658-1.611,6.805-2.257
					c2.314-0.695,3.188,0.927,2.018,2.917c-1.05,1.787-2.8,2.755-4.681,3.434c-0.75,0.271-0.666,1.423,0.194,1.433
					c3.375,0.04,9.548-6.23,5.598-9.212c-1.557-1.176-3.753-0.176-5.302,0.473c-1.11,0.464-2.749,1.508-4.027,1.442
					c-2.62-0.135-0.979-2.861-0.114-3.807c0.906-0.99,1.854-1.688,3.107-2.189C428.46,166.548,428.388,165.625,427.652,165.579
					L427.652,165.579z"/>
			</g>
			<g>
				<path style="fill:#100844;" d="M422.288,167.444c1.867,2.326,3.974,4.442,6.038,6.592c1.701,1.772,3.267,3.882,5.228,5.358
					c0.605,0.455,1.316-0.407,0.986-0.986c-1.21-2.125-3.258-3.887-4.949-5.636c-2.067-2.138-4.108-4.318-6.284-6.346
					C422.613,165.778,421.717,166.733,422.288,167.444L422.288,167.444z"/>
			</g>
		</g>
		<g>
			<path style="fill:#FC6840;" d="M116.227,251.04l-17.322-82.119c-0.441-2.091-2.494-3.429-4.586-2.988L33.39,178.785
				c-2.091,0.441-3.429,2.494-2.988,4.586l17.322,82.119c0.441,2.091,2.494,3.429,4.586,2.988l60.929-12.853
				C115.33,255.184,116.668,253.132,116.227,251.04z"/>
			<g>
				
					<rect x="43.215" y="176.127" transform="matrix(0.9785 -0.2064 0.2064 0.9785 -43.2527 19.8091)" style="fill:#FEFEFE;" width="60.199" height="82.157"/>
			</g>
			<g>
				<path style="fill:#484DCD;" d="M77.736,165.343L77.736,165.343c-2.395,0.505-4.87-0.186-6.697-1.815
					c-2.158-1.925-5.168-2.836-8.216-2.193c-3.048,0.643-5.433,2.692-6.63,5.325c-1.013,2.228-2.998,3.86-5.393,4.366l0,0
					c-0.84,0.177-1.378,1.002-1.201,1.843l1.401,6.64c0.531,2.518,3.002,4.128,5.52,3.597l20.862-4.401
					c2.518-0.531,4.128-3.003,3.597-5.52l-1.401-6.64C79.402,165.703,78.577,165.165,77.736,165.343z"/>
			</g>
			<g>
				
					<rect x="45.188" y="192.983" transform="matrix(0.9784 -0.2065 0.2065 0.9784 -38.9092 15.1632)" style="fill:#100844;" width="16" height="2"/>
			</g>
			<g>
				
					<rect x="46.621" y="198.215" transform="matrix(0.9784 -0.2065 0.2065 0.9784 -39.6442 18.6747)" style="fill:#100844;" width="46" height="2"/>
			</g>
			<g>
				
					<rect x="48.378" y="206.543" transform="matrix(0.9784 -0.2065 0.2065 0.9784 -41.3245 19.2159)" style="fill:#100844;" width="46" height="2"/>
			</g>
			<g>
				
					<rect x="50.135" y="214.872" transform="matrix(0.9784 -0.2065 0.2065 0.9784 -43.0066 19.7583)" style="fill:#100844;" width="46" height="2"/>
			</g>
			<g>
				
					<rect x="51.892" y="223.199" transform="matrix(0.9784 -0.2065 0.2065 0.9784 -44.6905 20.3017)" style="fill:#100844;" width="46" height="2"/>
			</g>
			<g>
				
					<rect x="53.648" y="231.528" transform="matrix(0.9784 -0.2065 0.2065 0.9784 -46.3729 20.8443)" style="fill:#100844;" width="46" height="2"/>
			</g>
			<g>
				
					<rect x="55.405" y="239.856" transform="matrix(0.9784 -0.2065 0.2065 0.9784 -48.0529 21.3854)" style="fill:#100844;" width="46" height="2"/>
			</g>
		</g>
		<g>
			<path style="fill:#E0993B;" d="M409.346,220.329l14.975,26.742c0.445,0.794,0.462,1.713,0.136,2.545
				c-0.277,0.712-0.829,1.368-1.586,1.793l-44.606,24.979c-0.758,0.424-1.605,0.551-2.357,0.416
				c-0.879-0.157-1.654-0.651-2.098-1.446l-14.975-26.742c-0.41-0.733-0.461-1.574-0.208-2.354c0.257-0.794,0.832-1.521,1.658-1.984
				l44.606-24.979c0.826-0.462,1.747-0.572,2.558-0.377C408.245,219.114,408.936,219.597,409.346,220.329z"/>
			<path style="fill:#F2B453;" d="M424.457,249.616c-0.277,0.712-0.829,1.368-1.586,1.793l-44.606,24.979
				c-0.758,0.424-1.605,0.551-2.357,0.416l11.048-23.269l3.582-7.549l8.308,0.891L424.457,249.616z"/>
			<path style="fill:#FFC155;" d="M407.448,218.922l-8.603,27.954l-1.681,5.456c-0.6,1.947-2.705,3.126-4.679,2.62l-5.53-1.419
				l-28.329-7.272c0.257-0.794,0.832-1.521,1.658-1.984l44.606-24.979C405.716,218.837,406.637,218.727,407.448,218.922z"/>
		</g>
		<g>
			<path style="fill:#D7DBFF;" d="M313.61,48.493c-24.577,0-44.5,16.159-44.5,36.092c0,12.147,7.407,22.884,18.749,29.425
				c-1.45,4.754-3.67,9.274-6.58,13.304c7.515-1.666,13.074-5.533,16.023-9.15c5.051,1.615,10.549,2.512,16.308,2.512
				c24.577,0,44.5-16.159,44.5-36.091S338.187,48.493,313.61,48.493z"/>
			<rect x="289.653" y="88.66" style="fill:#F57151;" width="10.783" height="14.661"/>
			<rect x="307.058" y="77.66" style="fill:#FFC155;" width="10.783" height="25.661"/>
			<rect x="324.827" y="70.832" style="fill:#5E6BE5;" width="10.783" height="32.489"/>
			<g>
				<path style="fill:#DD553E;" d="M286.11,104.546c8.837,1.164,18.184,0.403,27.093,0.416c8.206,0.013,15.906,0.445,25.329-0.182
					c0.622-0.041,0.616-1.145,0-1.243c-8.088-1.289-17.12-0.194-25.329-0.182c-8.908,0.014-18.259-0.748-27.093,0.416
					C285.614,103.838,285.613,104.481,286.11,104.546L286.11,104.546z"/>
			</g>
			<path style="fill:#DD553E;" d="M333.642,57.993c-0.386-0.622-1.258-0.928-1.908-1.16c-0.904-0.323-1.893-0.627-2.853-0.68
				c-0.888-0.049-1.302,1.336-0.467,1.725c0.602,0.281,1.23,0.436,1.863,0.636c0.212,0.067,0.47,0.124,0.735,0.181
				c-7.017,4.244-15.697,11.077-16.307,11.137c-0.617,0.061-0.458-0.216-1.259-1.007c-1.1-1.086-2.502-4.189-4.034-4.602
				c-2.241-0.605-19.049,13.785-24.378,18.117c-0.518,0.422,0.216,1.132,0.729,0.729c5.474-4.295,10.945-8.6,16.493-12.799
				c1.621-1.227,6.033-4.827,7.131-4.258c0.91,0.471,1.881,2.298,2.54,3.062c2.424,2.813,2.656,2.483,5.486,0.429
				c4.595-3.334,9.62-6.114,14.27-9.326c-0.406,0.663-0.855,1.28-1.128,2.01c-0.356,0.953,1.027,1.378,1.542,0.65
				c0.621-0.878,1.011-2.045,1.43-3.04C333.765,59.233,333.992,58.558,333.642,57.993z"/>
		</g>
		<path style="fill:#5E6BE5;" d="M451.48,79.984v-4.648h-3.108c-0.322-1.71-0.994-3.294-1.934-4.675l2.196-2.196l-3.288-3.288
			l-2.196,2.196c-1.387-0.945-2.971-1.611-4.675-1.934V62.33h-4.654v3.108c-1.704,0.322-3.288,0.989-4.67,1.934l-2.196-2.196
			l-3.288,3.288l2.196,2.196c-0.945,1.382-1.611,2.966-1.934,4.675h-3.108v4.648h3.108c0.322,1.704,0.989,3.288,1.934,4.675
			l-2.196,2.196l3.288,3.288l2.196-2.196c1.382,0.939,2.966,1.611,4.67,1.934v3.108h4.654v-3.108
			c1.704-0.322,3.288-0.994,4.675-1.934l2.196,2.196l3.288-3.288l-2.196-2.196c0.939-1.387,1.611-2.971,1.934-4.675H451.48z
			 M436.148,82.693c-2.78,0-5.036-2.25-5.036-5.036c0-2.78,2.256-5.036,5.036-5.036s5.036,2.256,5.036,5.036
			C441.184,80.442,438.928,82.693,436.148,82.693z"/>
		<path style="fill:#FC6840;" d="M422.536,98.933h-3.399c-0.491-2.122-1.328-4.118-2.452-5.902l2.41-2.41
			c0.609-0.609,0.609-1.598,0-2.207l-3.906-3.898c-0.6-0.609-1.59-0.609-2.198,0l-2.41,2.41c-1.784-1.124-3.779-1.962-5.902-2.452
			v-3.399c0-0.862-0.693-1.556-1.556-1.556h-5.521c-0.854,0-1.556,0.693-1.556,1.556v3.399c-2.122,0.49-4.109,1.328-5.902,2.452
			l-2.401-2.41c-0.609-0.609-1.598-0.609-2.207,0l-3.898,3.898c-0.609,0.609-0.609,1.598,0,2.207l2.401,2.41
			c-1.125,1.784-1.953,3.779-2.444,5.902h-3.407c-0.854,0-1.556,0.693-1.556,1.556v5.521c0,0.854,0.702,1.556,1.556,1.556h3.407
			c0.49,2.122,1.319,4.109,2.444,5.902l-2.401,2.401c-0.609,0.609-0.609,1.598,0,2.207l3.898,3.898c0.609,0.609,1.598,0.609,2.207,0
			l2.401-2.401c1.792,1.125,3.779,1.953,5.902,2.443v3.399c0,0.862,0.702,1.564,1.556,1.564h5.521c0.862,0,1.556-0.702,1.556-1.564
			v-3.399c2.122-0.49,4.118-1.319,5.902-2.443l2.41,2.401c0.609,0.609,1.598,0.609,2.198,0l3.906-3.898
			c0.609-0.609,0.609-1.598,0-2.207l-2.41-2.401c1.124-1.793,1.961-3.78,2.452-5.902h3.399c0.862,0,1.556-0.702,1.556-1.556v-5.521
			C424.092,99.626,423.398,98.933,422.536,98.933z M400.367,113.78c-5.817,0-10.535-4.718-10.535-10.535s4.718-10.535,10.535-10.535
			c5.817,0,10.535,4.718,10.535,10.535S406.184,113.78,400.367,113.78z"/>
		<g>
			<path style="fill:#110945;" d="M67.61,282.616L33.654,299.14c-1.218,0.592-1.724,2.06-1.132,3.277l31.11,63.929
				c0.593,1.217,2.06,1.724,3.277,1.132l33.956-16.524c1.218-0.592,1.724-2.06,1.132-3.277l-31.11-63.929
				C70.295,282.53,68.828,282.024,67.61,282.616z"/>
			
				<rect x="47.906" y="294.786" transform="matrix(0.8992 -0.4376 0.4376 0.8992 -134.9121 61.7663)" style="fill:#FFC155;" width="37.36" height="57.75"/>
			<path style="fill:#FEFEFE;" d="M84.175,353.331c0.685,1.407,0.099,3.103-1.308,3.788c-1.407,0.685-3.103,0.099-3.788-1.308
				c-0.685-1.407-0.099-3.103,1.308-3.788C81.794,351.338,83.49,351.924,84.175,353.331z"/>
			<path style="fill:#FEFEFE;" d="M56.429,292.506l-8.093,3.938c-0.414,0.201-0.586,0.7-0.385,1.114
				c0.201,0.414,0.7,0.586,1.114,0.385l8.093-3.938c0.414-0.201,0.586-0.7,0.385-1.114
				C57.341,292.477,56.843,292.305,56.429,292.506z"/>
			<g>
				<path style="fill:#FEFEFE;" d="M54.996,334.573c7.574,2.616,15.128,5.258,22.8,7.576c0.677,0.205,0.919-0.793,0.287-1.04
					c-7.479-2.912-15.065-5.499-22.65-8.119C54.432,332.646,54.003,334.23,54.996,334.573L54.996,334.573z"/>
			</g>
			<g>
				<path style="fill:#FEFEFE;" d="M48.397,316.088c10.185,3.737,20.435,7.22,30.801,10.414c0.469,0.145,0.641-0.554,0.199-0.723
					c-10.137-3.885-20.361-7.474-30.689-10.82C47.984,314.723,47.698,315.831,48.397,316.088L48.397,316.088z"/>
			</g>
			<g>
				<path style="fill:#FEFEFE;" d="M56.14,308.066c7.2,2.715,14.43,5.437,21.802,7.653c0.619,0.186,0.839-0.724,0.262-0.949
					c-7.165-2.803-14.528-5.122-21.865-7.427C55.872,307.196,55.696,307.898,56.14,308.066L56.14,308.066z"/>
			</g>
			<g>
				<path style="fill:#FEFEFE;" d="M65.447,301.342c2.056,0.837,4.069,1.655,6.232,2.177c0.455,0.11,0.799-0.58,0.334-0.792
					c-2.058-0.939-4.177-1.556-6.348-2.175C65.143,300.402,64.971,301.148,65.447,301.342L65.447,301.342z"/>
			</g>
		</g>
		<g>
			<g>
				<g>
					
						<ellipse transform="matrix(0.7174 -0.6966 0.6966 0.7174 -55.5377 69.2266)" style="fill:#110945;" cx="57.564" cy="103.073" rx="22.288" ry="22.288"/>
					
						<ellipse transform="matrix(0.9276 -0.3735 0.3735 0.9276 -34.3344 28.963)" style="fill:#DADFFE;" cx="57.564" cy="103.073" rx="17.705" ry="17.705"/>
				</g>
				
					<rect x="72.777" y="114.993" transform="matrix(0.6762 -0.7367 0.7367 0.6762 -64.0963 95.728)" style="fill:#110945;" width="8.167" height="11.584"/>
				<path style="fill:#DD553E;" d="M84.453,121.078l-6.653,7.247c-0.404,0.44-0.375,1.124,0.065,1.527l14.295,13.123
					c2.42,2.222,4.769,0.942,7.063-1.411c2.373-2.434,3.724-4.977,1.238-7.259l-14.481-13.293
					C85.541,120.609,84.857,120.638,84.453,121.078z"/>
			</g>
			<g>
				<path style="fill:#FEFEFE;" d="M50.519,109.06c4.547-0.151,9.296,0.059,13.795-0.638c0.605-0.094,0.407-0.975-0.137-1.013
					c-4.493-0.309-9.162,0.314-13.658,0.549C49.815,107.995,49.806,109.084,50.519,109.06L50.519,109.06z"/>
			</g>
			<g>
				<path style="fill:#FEFEFE;" d="M46.92,101.891c5.982,0.175,11.941-0.233,17.897-0.73c0.429-0.036,0.444-0.681,0-0.68
					c-5.978,0.012-11.951,0.118-17.897,0.801C46.539,101.325,46.518,101.879,46.92,101.891L46.92,101.891z"/>
			</g>
			<g>
				<path style="fill:#FEFEFE;" d="M51.367,95.801c3.611-0.121,7.237-0.146,10.832-0.522c0.603-0.063,0.632-0.949,0-0.961
					c-3.613-0.069-7.226,0.217-10.832,0.405C50.679,94.759,50.67,95.824,51.367,95.801L51.367,95.801z"/>
			</g>
			<g>
				<path style="fill:#FEFEFE;" d="M55.901,113.584c1.701-0.052,3.661,0.14,5.296-0.389c0.387-0.125,0.437-0.735,0-0.836
					c-1.678-0.389-3.594-0.04-5.296,0.054C55.153,112.453,55.142,113.607,55.901,113.584L55.901,113.584z"/>
			</g>
		</g>
		<g>
			<g>
				<path style="fill:#110945;" d="M356.898,148.232c4.839-5.809,9.987-11.29,14.973-16.959c0.701-0.796-0.379-1.892-1.168-1.168
					c-5.532,5.069-10.287,11.097-15.085,16.847C354.876,147.841,356.152,149.128,356.898,148.232L356.898,148.232z"/>
			</g>
			<g>
				<path style="fill:#110945;" d="M302.144,176.991c2.559-3.991,5.359-7.77,8.389-11.416c1.205-1.449,5.744-8.305,7.01-8.32
					c0.725-0.008,2.744,2.016,3.382,2.458c1.5,1.04,3.028,2.039,4.569,3.018c2.732,1.735,5.501,3.425,8.33,4.996
					c3.997,2.219,4.199,2.401,7.275-1.14c5.294-6.094,10.62-12.163,15.793-18.362c0.734-0.879-0.524-2.154-1.268-1.268
					c-3.285,3.916-6.638,7.773-9.987,11.634c-1.333,1.536-6.432,9.021-7.971,9.086c-2.271,0.097-6.765-3.734-8.624-4.872
					c-3.8-2.326-7.62-4.706-11.136-7.45c-0.478-0.373-0.986-0.304-1.354,0.174c-5.299,6.892-11.037,13.337-15.667,20.723
					C300.383,177.053,301.639,177.779,302.144,176.991L302.144,176.991z"/>
			</g>
			<g>
				<path style="fill:#110945;" d="M337.7,169.594c8.984,3.036,16.35,11.827,25.981,12.751c0.76,0.073,0.785-1.008,0.168-1.243
					c-9.061-3.445-16.564-9.967-25.743-12.983C337.168,167.811,336.772,169.281,337.7,169.594L337.7,169.594z"/>
			</g>
			<g>
				<path style="fill:#110945;" d="M317.281,155.476c-7.794-4.519-15.141-9.979-23.105-14.166c-0.471-0.248-0.866,0.427-0.417,0.713
					c7.47,4.76,14.65,11.166,22.795,14.698C317.381,157.079,318.105,155.954,317.281,155.476L317.281,155.476z"/>
			</g>
			<g>
				<path style="fill:#110945;" d="M317.834,156.343c5.412-7.275,11.839-13.596,17.44-20.664c0.492-0.621-0.259-1.405-0.878-0.878
					c-6.811,5.795-12.401,13.704-17.634,20.916C316.289,156.367,317.363,156.976,317.834,156.343L317.834,156.343z"/>
			</g>
			<g>
				<path style="fill:#110945;" d="M355.749,148.101c2.331,2.379,5.623,4.153,8.394,5.942c3.85,2.486,8.549,6.182,13.172,6.922
					c0.536,0.086,0.841-0.56,0.372-0.883c-6.612-4.563-15.145-7.171-20.919-13C356.114,146.422,355.099,147.438,355.749,148.101
					L355.749,148.101z"/>
			</g>
			<circle style="fill:#5E6BE5;" cx="338.769" cy="169.631" r="4.724"/>
			<circle style="fill:#FC6840;" cx="335.364" cy="133.689" r="4.724"/>
			<circle style="fill:#FC6840;" cx="300.967" cy="176.622" r="4.724"/>
			<path style="fill:#FFC155;" d="M360.982,147.592c0,2.609-2.115,4.724-4.724,4.724c-2.609,0-4.724-2.115-4.724-4.724
				c0-2.609,2.115-4.724,4.724-4.724C358.867,142.868,360.982,144.983,360.982,147.592z"/>
			<circle style="fill:#FFC155;" cx="363.681" cy="181.712" r="4.724"/>
			<path style="fill:#5E6BE5;" d="M299.238,141.666c0,2.609-2.115,4.724-4.724,4.724c-2.609,0-4.724-2.115-4.724-4.724
				c0-2.609,2.115-4.724,4.724-4.724C297.123,136.942,299.238,139.057,299.238,141.666z"/>
			<path style="fill:#5E6BE5;" d="M377.732,128.26c0,2.609-2.115,4.724-4.724,4.724c-2.609,0-4.724-2.115-4.724-4.724
				c0-2.609,2.115-4.724,4.724-4.724C375.617,123.536,377.732,125.651,377.732,128.26z"/>
			<path style="fill:#FC6840;" d="M383.408,160.499c0,2.609-2.115,4.724-4.724,4.724c-2.609,0-4.724-2.115-4.724-4.724
				c0-2.609,2.115-4.724,4.724-4.724C381.293,155.775,383.408,157.89,383.408,160.499z"/>
			<path style="fill:#FFC155;" d="M320.504,155.499c0,2.609-2.115,4.724-4.724,4.724c-2.609,0-4.724-2.115-4.724-4.724
				c0-2.609,2.115-4.724,4.724-4.724C318.389,150.775,320.504,152.89,320.504,155.499z"/>
		</g>
		<g>
			<path style="fill:#FFC155;" d="M177.622,101.782c0-16.981-16.972-30.746-37.909-30.746c-20.937,0-37.909,13.765-37.909,30.746
				c0,16.98,16.972,30.746,37.909,30.746c1.47,0,2.917-0.075,4.343-0.207c2.64,3.911,8.562,8.442,16.87,10.284
				c-2.752-3.813-4.898-8.06-6.35-12.532C168.124,125.384,177.622,114.484,177.622,101.782z"/>
			<g>
				<g>
					<path style="fill:#5E6BE5;" d="M126.786,101.341c-0.076-0.336-0.286-0.821-0.464-1.116c0.133,0.315,0.266,0.63,0.399,0.945
						c-0.008-0.024-0.016-0.048-0.024-0.072c0,0.688,0,1.376,0,2.064c0.006-0.03,0.012-0.06,0.018-0.091
						c-0.129,0.305-0.258,0.611-0.387,0.916c0.015-0.027,0.03-0.053,0.044-0.08c0.749-1.347,0.645-2.995-0.297-4.215
						c-0.946-1.225-2.482-1.719-3.989-1.36c-0.368,0.088-0.745,0.296-1.093,0.445c0.309-0.13,0.618-0.261,0.927-0.391
						c-1.424,0.451-2.557,1.461-2.946,2.954c-0.664,2.545,1.26,5.127,3.906,5.127c1.038,0,2.129-0.452,2.864-1.186
						C126.801,104.226,127.111,102.769,126.786,101.341L126.786,101.341z"/>
				</g>
				<g>
					<path style="fill:#5E6BE5;" d="M143.818,101.019c-0.077-0.336-0.286-0.821-0.464-1.116c0.133,0.315,0.266,0.63,0.399,0.945
						c-0.008-0.024-0.016-0.048-0.024-0.071c0,0.688,0,1.376,0,2.064c0.006-0.03,0.012-0.06,0.018-0.091
						c-0.129,0.305-0.258,0.611-0.387,0.916c0.015-0.027,0.03-0.053,0.044-0.08c0.749-1.347,0.645-2.996-0.297-4.215
						c-0.946-1.225-2.482-1.719-3.989-1.36c-0.368,0.088-0.745,0.297-1.093,0.445c0.309-0.131,0.618-0.261,0.927-0.391
						c-1.424,0.451-2.557,1.461-2.946,2.954c-0.664,2.545,1.26,5.127,3.905,5.127c1.039,0,2.129-0.452,2.864-1.186
						C143.833,103.903,144.143,102.447,143.818,101.019L143.818,101.019z"/>
				</g>
				<g>
					<path style="fill:#5E6BE5;" d="M160.85,100.696c-0.077-0.336-0.286-0.821-0.464-1.116c0.133,0.315,0.266,0.63,0.399,0.945
						c-0.008-0.024-0.016-0.048-0.024-0.071c0,0.688,0,1.376,0,2.064c0.006-0.03,0.012-0.061,0.018-0.091
						c-0.129,0.305-0.258,0.611-0.387,0.916c0.015-0.027,0.03-0.053,0.044-0.08c0.749-1.347,0.645-2.996-0.297-4.215
						c-0.946-1.225-2.482-1.719-3.989-1.36c-0.368,0.088-0.745,0.296-1.093,0.445c0.309-0.13,0.618-0.261,0.927-0.391
						c-1.424,0.451-2.557,1.461-2.946,2.954c-0.664,2.545,1.26,5.127,3.906,5.127c1.038,0,2.129-0.452,2.864-1.186
						C160.864,103.581,161.175,102.124,160.85,100.696L160.85,100.696z"/>
				</g>
			</g>
		</g>
		<g>
			<path style="fill:#5E6BE5;" d="M223.357,42.932l-33.773,9.307l13.951,50.624l33.773-9.307c1.011-0.279,1.605-1.324,1.327-2.336
				l-12.941-46.962C225.414,43.247,224.368,42.653,223.357,42.932z"/>
			<path style="fill:#2D26AF;" d="M188.319,52.587c-1.435,0.395-2.277,1.879-1.882,3.313l12.519,45.429
				c0.395,1.435,1.879,2.277,3.313,1.882l1.265-0.349l-13.951-50.624L188.319,52.587z"/>
			
				<rect x="202.001" y="62.414" transform="matrix(0.9641 -0.2657 0.2657 0.9641 -9.7148 58.7561)" style="fill:#D7DBFF;" width="20.667" height="5.75"/>
			<polygon style="fill:#FC6840;" points="218.947,110.773 215.097,108.722 212.841,112.456 209.728,101.157 215.833,99.474 			"/>
		</g>
		<g>
			
				<rect x="444.771" y="228.488" transform="matrix(0.9204 0.391 -0.391 0.9204 134.3881 -156.3866)" style="fill:#DD553E;" width="13" height="46.737"/>
			
				<rect x="448.271" y="228.488" transform="matrix(0.9204 0.391 -0.391 0.9204 134.3875 -156.3861)" style="fill:#5E6BE5;" width="6" height="46.737"/>
			<path style="fill:#2D26AF;" d="M465.963,225.64l-6.025-2.559c-1.64-0.697-3.535,0.068-4.232,1.708l-1.282,3.017l11.965,5.083
				l1.282-3.017C468.368,228.232,467.603,226.337,465.963,225.64z"/>
			<path style="fill:#E0993B;" d="M436.151,270.825l0.428,7.689l0.315,5.667c0.031,0.549,0.678,0.824,1.094,0.465l4.297-3.707
				l5.831-5.031L436.151,270.825z"/>
			<path style="fill:#110945;" d="M436.579,278.515l0.315,5.667c0.031,0.549,0.678,0.824,1.094,0.465l4.297-3.707L436.579,278.515z"
				/>
		</g>
	</g>
</g>
</svg>
